<svg version="1.1" id="Layer_1"    xmlns="http://www.w3.org/2000/svg"  x="0px" y="0px" viewBox="0 0 210.4 51" style="enable-background:new 0 0 210.4 51;">
 <style type="text/css">
  .st0{fill:#FFFFFF;}
 </style>
 <metadata>
  <sfw xmlns="ns_sfw;">
   <slices>
   </slices>
   <sliceSourceBounds bottomLeftOrigin="true" height="51" width="210.4" x="94.7" y="174">
   </sliceSourceBounds>
  </sfw>
 </metadata>
 <g>
  <path class="st0" d="M51.3,5.3h13c4.8,0,8,0.2,10.7,3.2c1.9,2.1,2.9,4.7,2.9,7.7c0,3-1.1,5.5-3.1,7.7c-2.1,2.1-4.8,3.4-11.8,3.4
		h-6.3V45h-5.5V5.3z M56.8,22.8h6.3c3.6,0,9-0.2,9-6.8c0-6.2-5-6.2-8-6.2h-7.4V22.8z M95.4,45C95,43.7,95,42.2,95,41
		c-2.5,4.5-6.1,4.9-8.4,4.9c-6.3,0-9.7-3.6-9.7-8.1c0-2.1,0.8-5.8,4.8-8.1c2.9-1.7,7.1-1.7,9.5-1.7c1.3,0,2.1,0,3.6,0.2
		c0-3.4,0-4.9-1.1-6.2c-1-1.3-3.1-1.7-4.6-1.7c-5,0-5.5,3.6-5.5,4.7h-5c0.2-1.5,0.4-3.4,1.9-5.1c2.1-2.3,5.9-3,8.8-3
		c4,0,8.2,1.3,9.7,4.1c0.8,1.7,0.8,3,0.8,4.3l-0.2,13.2c0,0.4,0,4,0.4,6.8h-4.6V45z M91.9,31.4c-2.1,0-9.9,0-9.9,5.5
		c0,1.7,1.1,4.7,5.7,4.7c2.5,0,4.6-1.1,5.9-3c1-1.9,1.3-3.4,1.3-7.2C94,31.6,93.1,31.4,91.9,31.4L91.9,31.4z M104.3,5.3h5V45h-5V5.3
		z M131.2,45c-0.4-1.3-0.4-2.8-0.4-4c-2.5,4.5-6.1,4.9-8.4,4.9c-6.3,0-9.7-3.6-9.7-8.1c0-2.1,0.8-5.8,4.8-8.1c3-1.7,7.1-1.7,9.5-1.7
		c1.3,0,2.1,0,3.6,0.2c0-3.4,0-4.9-1.1-6.2c-1.1-1.3-3.1-1.7-4.6-1.7c-5,0-5.5,3.6-5.5,4.7h-5c0.2-1.5,0.4-3.4,1.9-5.1
		c2.1-2.3,5.9-3,8.8-3c4,0,8.2,1.3,9.7,4.1c0.8,1.7,0.8,3,0.8,4.3l-0.2,13.2c0,0.4,0,4,0.4,6.8h-4.6V45z M127.8,31.4
		c-2.1,0-9.9,0-9.9,5.5c0,1.7,1,4.7,5.7,4.7c2.5,0,4.6-1.1,5.9-3c1.1-1.9,1.3-3.4,1.3-7.2C129.7,31.6,129.1,31.4,127.8,31.4
		L127.8,31.4z M140.2,20.7v-3.2h5V22c0.6-1.1,2.5-4.9,8.6-4.9c2.5,0,9.9,0.9,9.9,9.4v18.8h-5.2V27.7c0-1.7-0.2-3.4-1.5-4.7
		c-1.3-1.3-3.2-1.9-4.8-1.9c-3.8,0-7.1,2.8-7.1,8.3v15.8h-5V20.7H140.2z M165.4,17.5h4.8v-6l5-1.7v7.5h6.1v3.8h-6.1v16.4
		c0,1.3,0,3.6,3.6,3.6c1.1,0,2.1-0.2,2.5-0.2v4c-0.8,0.2-2.3,0.4-4.2,0.4c-4.8,0-6.9-1.5-6.9-6V21.1h-4.8V17.5z M185,5.3h6.1v5.8
		H185V5.3z M185.4,17.5h5V45h-5V17.5z M195.3,23c0-1.9-0.2-3.8-0.2-5.5h5l0.2,5.3c1-3.8,4.2-5.1,6.5-5.3c1.2-0.2,2.4-0.2,3.6-0.2
		v5.1c-0.2,0-0.6-0.2-1.1-0.2h-1.5c-6.1,0-7.4,3.6-7.4,8.3v14.7h-5V23H195.3z M20,0C9.5,0,0.8,8.8,0.8,19.4
		c0,10.7,8.6,19.4,19.1,19.4c10.5,0,19.1-8.7,19.1-19.4C39.1,8.8,30.5,0,20,0L20,0z M20,32.9c-7.4,0-13.3-6-13.3-13.4
		C6.7,12,12.6,6,20,6c7.4,0,13.2,6,13.2,13.4C33,26.9,27.1,32.9,20,32.9L20,32.9z M37,37.1l-17,7.5l-17-7.5L0,42.5L20,51l20-8.5
		L37,37.1z M37,37.1">
  </path>
 </g>
</svg>